<svg width="167" height="175" viewBox="0 0 167 175" fill="none" xmlns="http://www.w3.org/2000/svg">
<g opacity="0.79" clip-path="url(#clip0_4_290)">
<path d="M80.142 164.171L79.9292 159.781C79.9071 159.77 79.8849 159.759 79.8628 159.749C77.5822 158.651 74.9684 160.638 75.6969 162.905C76.3822 165.037 76.8427 167.336 78.0973 169.202C78.8385 170.287 79.8361 171.204 81.0163 171.886C82.1964 172.568 83.5287 172.998 84.9146 173.144L87.812 174.772C88.2096 172.738 88.1219 170.65 87.5551 168.65C86.9882 166.651 85.9557 164.788 84.5285 163.19C83.7182 162.301 82.7891 161.509 81.763 160.832C81.0691 162.511 80.142 164.171 80.142 164.171Z" fill="#F2F2F2"/>
<path d="M54.2009 119.615C48.6226 114.337 40.5388 111.31 32.0223 111.31L31.6938 111.311C26.0843 111.313 20.5748 109.948 15.7289 107.355L15.2247 107.086L15.6308 106.702C17.8296 104.615 19.6656 102.23 21.0744 99.631C20.0738 100.487 18.8804 101.13 17.5786 101.516C16.2768 101.902 14.8985 102.021 13.5413 101.864C12.1083 101.707 10.7327 101.255 9.51748 100.54C8.30229 99.8264 7.27913 98.8691 6.52473 97.7404C3.54815 93.3095 1.52588e-05 87.0224 1.52588e-05 82.2328C0.00464877 78.1843 0.928576 74.1812 2.71291 70.4786C4.49724 66.7759 7.10283 63.4549 10.3636 60.7273C12.428 59.0195 14.0768 56.9318 15.2028 54.6002C16.3287 52.2686 16.9064 49.7454 16.8981 47.1953L16.8965 46.8323C16.8959 43.4749 17.3431 40.13 18.2281 36.8722L18.318 36.5432L18.6869 36.555C21.066 36.6293 23.4463 36.4463 25.7788 36.0099C23.5909 35.7637 21.4506 35.2414 19.4186 34.4579L19.0217 34.3106L19.1564 33.9375C28.4412 28.6632 49.3999 31.3945 61.5649 5.85911C71.429 -14.8466 106.233 24.2396 106.233 46.8324C106.233 49.1377 103.746 52.1841 105.608 53.7078C125.732 70.1792 111.847 80.7561 107.469 91.3989C106.43 93.9241 108.682 96.6962 108.682 99.4281C108.682 99.8917 108.669 100.37 108.644 100.85L108.605 101.588L107.934 101.179C106.607 100.381 105.376 99.4552 104.264 98.417C105.418 100.853 105.962 103.496 105.856 106.151C105.749 108.806 104.996 111.405 103.65 113.758C101.541 117.409 99.5006 120.024 97.5857 121.528C91.4516 126.344 83.5438 128.828 75.4795 128.472C67.4152 128.117 59.8035 124.949 54.2009 119.615Z" fill="#E6E6E6"/>
<path d="M87.8922 174.555C88.0293 174.555 88.1618 174.509 88.2653 174.427C88.3688 174.344 88.4365 174.23 88.4558 174.106C88.48 173.95 90.8519 158.255 88.7217 137.396C86.7543 118.133 80.4365 90.3861 61.5108 67.5984C61.4655 67.5437 61.4088 67.4977 61.3441 67.4631C61.2794 67.4285 61.2079 67.4059 61.1336 67.3967C61.0594 67.3874 60.9839 67.3917 60.9115 67.4092C60.839 67.4268 60.7711 67.4572 60.7115 67.4989C60.6519 67.5406 60.6018 67.5926 60.5642 67.652C60.5265 67.7114 60.502 67.7771 60.492 67.8452C60.4821 67.9133 60.4868 67.9826 60.506 68.049C60.5253 68.1154 60.5586 68.1778 60.604 68.2324C79.3663 90.8233 85.6332 118.366 87.5866 137.494C89.7045 158.231 87.3512 173.803 87.3272 173.958C87.3157 174.033 87.3218 174.108 87.345 174.18C87.3681 174.252 87.4078 174.318 87.4614 174.375C87.5149 174.431 87.5811 174.477 87.6555 174.508C87.7298 174.539 87.8105 174.555 87.8922 174.555Z" fill="#E6E6E6"/>
<path d="M72.4477 99.7415C72.5681 99.7416 72.6854 99.7067 72.7829 99.6418C72.8803 99.5769 72.9529 99.4854 72.9901 99.3804C73.0274 99.2753 73.0274 99.1622 72.9903 99.0571C72.9531 98.952 72.8806 98.8605 72.7832 98.7955C72.7145 98.7497 65.791 94.1728 55.4403 90.6958C45.8719 87.4819 31.3217 84.5683 16.3426 88.9421C16.2712 88.9628 16.2049 88.9963 16.1476 89.0405C16.0902 89.0848 16.043 89.139 16.0085 89.2C15.974 89.2611 15.953 89.3277 15.9467 89.3962C15.9403 89.4647 15.9487 89.5337 15.9714 89.5992C15.9942 89.6647 16.0307 89.7254 16.0791 89.7779C16.1274 89.8305 16.1866 89.8737 16.2531 89.9052C16.3197 89.9368 16.3924 89.956 16.4671 89.9617C16.5417 89.9674 16.6169 89.9596 16.6883 89.9386C31.3605 85.6547 45.6469 88.5201 55.0483 91.678C65.2512 95.1053 72.0456 99.5966 72.113 99.6416C72.2102 99.7066 72.3274 99.7415 72.4477 99.7415Z" fill="#E6E6E6"/>
<path d="M98.5349 40.1312C98.5436 40.021 98.5141 39.9111 98.4506 39.8173C98.3871 39.7234 98.2929 39.6504 98.1813 39.6088C98.0698 39.5671 97.9468 39.5589 97.8299 39.5854C97.713 39.6118 97.6082 39.6715 97.5306 39.756C97.4759 39.8156 92.0016 45.8215 87.4761 55.0428C83.2931 63.5671 79.0777 76.6718 82.754 90.6938C82.7893 90.8286 82.8816 90.9451 83.0105 91.0175C83.1394 91.0899 83.2944 91.1123 83.4414 91.0799C83.5883 91.0475 83.7152 90.9628 83.7942 90.8446C83.8731 90.7263 83.8976 90.5841 83.8622 90.4493C80.2616 76.7145 84.4056 63.8477 88.5157 55.4722C92.9765 46.3826 98.3484 40.4887 98.4021 40.4302C98.4798 40.3459 98.5262 40.2412 98.5349 40.1312Z" fill="#E6E6E6"/>
<path d="M97.7635 67.0955C98.2444 70.6553 100.933 73.5903 104.843 73.5903C106.72 73.5903 108.521 72.9061 109.848 71.6881C111.176 70.47 111.922 68.8181 111.922 67.0955C111.922 63.5086 108.736 60.9324 104.843 60.6007C100.712 60.2489 97.1461 62.5253 97.7635 67.0955Z" fill="#2F2E41"/>
<path d="M108.121 171.694L110.817 171.694L112.1 162.154L108.121 162.154L108.121 171.694Z" fill="#FFB6B6"/>
<path d="M108.027 174.274L116.317 174.274V174.178C116.316 173.393 115.976 172.64 115.371 172.085C114.766 171.53 113.946 171.218 113.09 171.218L111.575 170.164L108.75 171.218L108.026 171.218L108.027 174.274Z" fill="#2F2E41"/>
<path d="M97.5027 171.694L100.198 171.694L101.481 162.154L97.5021 162.154L97.5027 171.694Z" fill="#FFB6B6"/>
<path d="M97.4079 174.274L105.698 174.274V174.178C105.698 173.393 105.358 172.64 104.753 172.085C104.148 171.53 103.327 171.218 102.471 171.218L100.957 170.164L98.1314 171.218L97.4078 171.218L97.4079 174.274Z" fill="#2F2E41"/>
<path d="M117.398 111.944L119.304 117.94L117.059 143.33C117.059 143.33 118.215 144.918 117.398 144.918C116.581 144.918 115.534 145.27 116.194 146.218C116.854 147.166 114.598 150.57 114.598 150.57L111.408 168.649L107.343 168.594C107.343 168.594 105.277 167.538 106.437 166.47C107.596 165.402 108.413 165.402 107.324 164.402C106.235 163.403 106.235 163.704 106.235 162.929C106.235 162.154 105.144 152.683 107.732 149.051L106.952 134.239L105.115 148.767L101.334 168.149L97.4183 168.12C97.4183 168.12 95.6097 166.52 95.613 165.336C95.6164 164.153 96.7305 164.054 95.9011 163.354C95.0718 162.654 95.0718 151.897 97.5223 145.917C97.5223 145.917 98.9085 142.576 97.5191 141.432C96.1298 140.287 97.5174 138.977 97.5174 138.977C97.5174 138.977 99.7179 138.247 97.5154 136.145C95.313 134.042 97.5035 119.171 97.5035 119.171C97.5035 119.171 95.0959 113.168 97.5343 110.808C99.9728 108.447 117.398 111.944 117.398 111.944Z" fill="#2F2E41"/>
<path d="M83.4526 122.274L86.8531 114.734L89.5323 116.1L87.9143 123.769C88.0764 124.255 88.0875 124.773 87.9464 125.264C87.8053 125.756 87.5176 126.201 87.1156 126.551C86.7137 126.9 86.2134 127.14 85.6711 127.243C85.1288 127.346 84.5658 127.308 84.0456 127.134C83.5254 126.96 83.0685 126.656 82.7264 126.256C82.3842 125.856 82.1703 125.377 82.1086 124.872C82.047 124.367 82.1402 123.857 82.3776 123.397C82.615 122.938 82.9873 122.549 83.4526 122.274Z" fill="#FFB6B6"/>
<path d="M140.514 62.6537L135.34 69.2902L133.068 67.4032L136.538 60.2694C136.5 59.7625 136.617 59.2559 136.876 58.8066C137.135 58.3574 137.525 57.9833 138.003 57.7263C138.481 57.4694 139.027 57.3398 139.581 57.3522C140.134 57.3646 140.673 57.5184 141.137 57.7964C141.601 58.0744 141.971 58.4655 142.205 58.9258C142.44 59.3861 142.53 59.8973 142.465 60.402C142.4 60.9066 142.184 61.3847 141.839 61.7825C141.494 62.1803 141.036 62.482 140.514 62.6537Z" fill="#FFB6B6"/>
<path d="M117.912 112.559C121.268 117.335 104.398 123.396 97.9256 120.962C96.7922 120.536 92.8934 119.129 95.5584 117.178C98.2233 115.227 95.2494 114.952 95.1791 113.682C95.1321 112.833 95.8486 110.971 95.101 111.05C94.3534 111.13 93.4783 109.956 95.1066 109.451C96.7348 108.945 95.124 108.485 95.1383 108.005C95.294 102.77 99.6716 94.444 99.6716 94.444L91.7836 112.943C91.7836 112.943 91.8418 116.144 90.8359 115.166C89.83 114.188 89.9032 117.353 89.9032 117.353C89.9032 117.353 88.4074 118.311 89.2676 118.844C90.1277 119.377 88.3416 121.016 88.3416 121.016L84.174 120.743C84.174 120.743 84.2392 117.902 84.9508 117.274C85.6624 116.646 85.3129 115.657 85.3129 115.657C85.3129 115.657 87.1656 114.153 85.9235 112.931C84.326 111.36 90.1503 84.8211 92.1603 85.0839C92.4445 83.8151 93.1055 82.643 94.0704 81.6974C95.0353 80.7517 96.2664 80.0692 97.6276 79.7253L102.129 78.5883L102.928 75.6787H109.266L110.37 77.5905L115.189 79.5856C116.097 78.4106 116.775 77.1725 120.492 76.7712C120.492 76.7712 130.507 68.4112 130.018 67.7584C129.529 67.1056 131.081 65.5774 131.081 65.5774C131.081 65.5774 132.407 65.1793 131.659 64.9667C130.911 64.7541 132.325 64.2627 132.325 64.2627C132.325 64.2627 133.635 63.9469 133.017 63.5312C132.399 63.1155 135.078 62.8423 135.078 62.8423L138.554 65.4445L137.852 66.5374C137.852 66.5374 138.28 68.0257 137.721 67.4824C137.162 66.9391 137.057 68.5158 137.057 68.5158C137.057 68.5158 136.771 70.2425 135.078 70.7627C133.385 71.2829 132.101 76.2249 132.101 76.2249C128.109 80.9879 123.396 84.7035 117.812 87.1495C119.989 89.4412 117.912 112.559 117.912 112.559Z" fill="#589EAD"/>
<path d="M105.625 73.976C109.092 73.976 111.903 71.3975 111.903 68.2167C111.903 65.0359 109.092 62.4574 105.625 62.4574C102.158 62.4574 99.3476 65.0359 99.3476 68.2167C99.3476 71.3975 102.158 73.976 105.625 73.976Z" fill="#FFB6B6"/>
<path d="M99.1249 68.8441C99.3236 70.0956 100.486 71.8417 100.214 71.8417C99.9417 71.8417 98.0058 66.6825 99.9417 66.3461C101.346 66.1021 101.66 66.3162 102.972 65.7941L102.787 65.954C103.655 66.5335 104.864 66.1763 105.855 65.7991C106.849 65.4244 108.055 65.0672 108.927 65.6442C109.474 66.0064 109.705 66.6359 110.046 67.1705C110.386 67.7076 111.015 68.2147 111.663 68.0498C112.183 67.9174 112.483 67.3828 112.48 66.8882C112.477 66.3936 111.775 65.9231 112.012 65.4793C112.712 64.1643 112.082 63.2679 110.555 62.6491C109.999 62.5717 109.444 62.4926 108.889 62.4118C109.18 62.0419 109.533 61.7165 109.934 61.4476C109.764 61.0484 109.471 60.7037 109.09 60.4559C108.646 60.2136 108.096 60.2311 107.582 60.256C106.433 60.311 105.285 60.3659 104.137 60.4209C103.288 60.4609 102.408 60.5083 101.649 60.8655C100.701 61.3127 100.081 62.1845 99.6286 63.0713C98.6157 65.0647 98.7763 66.6684 99.1249 68.8441Z" fill="#2F2E41"/>
<path d="M73.0109 174.923L134.749 175C134.835 175 134.917 174.969 134.978 174.913C135.039 174.857 135.073 174.781 135.073 174.703C135.073 174.624 135.039 174.548 134.978 174.492C134.917 174.436 134.835 174.405 134.749 174.405L73.0109 174.328C72.9249 174.328 72.8425 174.36 72.7817 174.415C72.7209 174.471 72.6867 174.547 72.6867 174.626C72.6867 174.705 72.7209 174.78 72.7817 174.836C72.8425 174.892 72.9249 174.923 73.0109 174.923Z" fill="#CACACA"/>
<path d="M50.6818 148.996C50.7956 148.279 49.9763 147.575 48.8518 147.425C47.7273 147.275 46.7235 147.735 46.6097 148.453C46.4959 149.17 47.3152 149.874 48.4397 150.024C49.5641 150.174 50.568 149.714 50.6818 148.996Z" fill="#E6E6E6"/>
<path d="M64.0699 147.798C64.1837 147.08 63.3644 146.377 62.2399 146.226C61.1154 146.076 60.1116 146.536 59.9978 147.254C59.884 147.972 60.7033 148.675 61.8278 148.825C62.9522 148.975 63.9561 148.515 64.0699 147.798Z" fill="#E6E6E6"/>
<path d="M47.0157 139.052C47.1295 138.335 46.3102 137.631 45.1857 137.481C44.0613 137.331 43.0574 137.791 42.9436 138.509C42.8298 139.226 43.6491 139.93 44.7736 140.08C45.8981 140.23 46.9019 139.77 47.0157 139.052Z" fill="#FF6584"/>
<path d="M41.1982 134.979C41.2037 134.32 40.8031 133.783 40.3035 133.78C39.8039 133.776 39.3946 134.308 39.3891 134.966C39.3837 135.625 39.7843 136.162 40.2838 136.166C40.7834 136.169 41.1928 135.638 41.1982 134.979Z" fill="#E6E6E6"/>
<path d="M39.2254 127.392C39.2308 126.733 38.8303 126.196 38.3307 126.193C37.8311 126.189 37.4217 126.721 37.4163 127.38C37.4109 128.038 37.8115 128.575 38.311 128.579C38.8106 128.582 39.22 128.051 39.2254 127.392Z" fill="#E6E6E6"/>
<path d="M54.5667 140.744C54.5721 140.086 54.1716 139.549 53.672 139.545C53.1724 139.542 52.7631 140.073 52.7576 140.732C52.7522 141.391 53.1528 141.928 53.6523 141.931C54.1519 141.935 54.5613 141.403 54.5667 140.744Z" fill="#E6E6E6"/>
<path d="M48.097 143.708C48.1024 143.049 47.7019 142.512 47.2023 142.509C46.7027 142.505 46.2933 143.037 46.2879 143.695C46.2825 144.354 46.683 144.891 47.1826 144.895C47.6822 144.898 48.0916 144.367 48.097 143.708Z" fill="#FF6584"/>
<path d="M57.1031 149.186C57.1085 148.527 56.7079 147.99 56.2084 147.986C55.7088 147.983 55.2994 148.514 55.294 149.173C55.2886 149.832 55.6891 150.369 56.1887 150.372C56.6883 150.376 57.0976 149.844 57.1031 149.186Z" fill="#E6E6E6"/>
<path d="M153.601 110.527C153.715 109.809 152.896 109.106 151.771 108.956C150.647 108.806 149.643 109.266 149.529 109.984C149.415 110.701 150.235 111.405 151.359 111.555C152.484 111.705 153.488 111.245 153.601 110.527Z" fill="#E6E6E6"/>
<path d="M166.989 109.329C167.103 108.611 166.284 107.907 165.159 107.757C164.035 107.607 163.031 108.067 162.917 108.785C162.804 109.503 163.623 110.206 164.747 110.356C165.872 110.506 166.876 110.046 166.989 109.329Z" fill="#E6E6E6"/>
<path d="M149.935 100.583C150.049 99.8653 149.23 99.1619 148.105 99.0118C146.981 98.8617 145.977 99.3218 145.863 100.039C145.749 100.757 146.568 101.461 147.693 101.611C148.817 101.761 149.821 101.301 149.935 100.583Z" fill="#FF6584"/>
<path d="M144.118 96.5098C144.123 95.8509 143.723 95.314 143.223 95.3106C142.724 95.3071 142.314 95.8384 142.309 96.4973C142.303 97.1561 142.704 97.693 143.203 97.6965C143.703 97.7 144.112 97.1687 144.118 96.5098Z" fill="#E6E6E6"/>
<path d="M142.145 88.923C142.15 88.2641 141.75 87.7272 141.25 87.7237C140.751 87.7203 140.341 88.2516 140.336 88.9104C140.33 89.5693 140.731 90.1062 141.231 90.1097C141.73 90.1131 142.14 89.5818 142.145 88.923Z" fill="#E6E6E6"/>
<path d="M157.486 102.275C157.492 101.616 157.091 101.079 156.592 101.076C156.092 101.073 155.683 101.604 155.677 102.263C155.672 102.922 156.072 103.458 156.572 103.462C157.071 103.465 157.481 102.934 157.486 102.275Z" fill="#E6E6E6"/>
<path d="M151.017 105.239C151.022 104.58 150.621 104.043 150.122 104.04C149.622 104.036 149.213 104.567 149.207 105.226C149.202 105.885 149.603 106.422 150.102 106.426C150.602 106.429 151.011 105.898 151.017 105.239Z" fill="#FF6584"/>
<path d="M160.023 110.716C160.028 110.058 159.628 109.521 159.128 109.517C158.628 109.514 158.219 110.045 158.214 110.704C158.208 111.363 158.609 111.9 159.108 111.903C159.608 111.907 160.017 111.375 160.023 110.716Z" fill="#E6E6E6"/>
<path d="M103.775 39.3342C103.889 38.6165 103.07 37.913 101.945 37.7629C100.821 37.6128 99.8169 38.0729 99.7031 38.7906C99.5893 39.5083 100.409 40.2117 101.533 40.3618C102.658 40.5119 103.661 40.0518 103.775 39.3342Z" fill="white"/>
<path d="M117.163 38.1356C117.277 37.4179 116.458 36.7145 115.333 36.5644C114.209 36.4143 113.205 36.8744 113.091 37.5921C112.977 38.3097 113.797 39.0132 114.921 39.1633C116.046 39.3134 117.05 38.8533 117.163 38.1356Z" fill="#E6E6E6"/>
<path d="M100.109 29.3901C100.223 28.6724 99.4037 27.969 98.2792 27.8188C97.1547 27.6687 96.1509 28.1288 96.0371 28.8465C95.9232 29.5642 96.7425 30.2677 97.867 30.4178C98.9915 30.5679 99.9953 30.1078 100.109 29.3901Z" fill="#FF6584"/>
<path d="M94.2917 25.3169C94.2971 24.658 93.8965 24.1211 93.3969 24.1176C92.8974 24.1142 92.488 24.6455 92.4826 25.3043C92.4771 25.9632 92.8777 26.5001 93.3773 26.5036C93.8769 26.507 94.2862 25.9757 94.2917 25.3169Z" fill="#E6E6E6"/>
<path d="M92.3188 17.73C92.3243 17.0712 91.9237 16.5343 91.4241 16.5308C90.9245 16.5273 90.5152 17.0586 90.5097 17.7175C90.5043 18.3764 90.9049 18.9133 91.4044 18.9167C91.904 18.9202 92.3134 18.3889 92.3188 17.73Z" fill="#E6E6E6"/>
<path d="M107.66 31.0823C107.666 30.4235 107.265 29.8865 106.765 29.8831C106.266 29.8796 105.856 30.4109 105.851 31.0698C105.846 31.7286 106.246 32.2655 106.746 32.269C107.245 32.2725 107.655 31.7412 107.66 31.0823Z" fill="#E6E6E6"/>
<path d="M101.19 34.0459C101.196 33.3871 100.795 32.8502 100.296 32.8467C99.7961 32.8432 99.3868 33.3745 99.3813 34.0334C99.3759 34.6922 99.7765 35.2292 100.276 35.2326C100.776 35.2361 101.185 34.7048 101.19 34.0459Z" fill="#FF6584"/>
<path d="M110.196 39.5235C110.202 38.8646 109.801 38.3277 109.302 38.3243C108.802 38.3208 108.393 38.8521 108.387 39.5109C108.382 40.1698 108.783 40.7067 109.282 40.7102C109.782 40.7136 110.191 40.1823 110.196 39.5235Z" fill="#E6E6E6"/>
</g>
<defs>
<clipPath id="clip0_4_290">
<rect width="167" height="175" fill="white"/>
</clipPath>
</defs>
</svg>
